<?xml version="1.0" encoding="UTF-8" standalone="no"?>
<!DOCTYPE svg PUBLIC "-//W3C//DTD SVG 1.1//EN"
 "http://www.w3.org/Graphics/SVG/1.1/DTD/svg11.dtd">
<!-- Generated by graphviz version 2.43.0 (0)
 -->
<!-- Title: %3 Pages: 1 -->
<svg width="578pt" height="788pt"
 viewBox="0.00 0.00 577.88 788.00" xmlns="http://www.w3.org/2000/svg" xmlns:xlink="http://www.w3.org/1999/xlink">
<g id="graph0" class="graph" transform="scale(1 1) rotate(0) translate(4 784)">
<title>%3</title>
<polygon fill="white" stroke="transparent" points="-4,4 -4,-784 573.88,-784 573.88,4 -4,4"/>
<!-- kafka_raw -->
<g id="node1" class="node">
<title>kafka_raw</title>
<polygon fill="none" stroke="black" points="332.6,-780 237.28,-780 203.33,-744 366.55,-744 332.6,-780"/>
<text text-anchor="middle" x="284.94" y="-758.3" font-family="Times,serif" font-size="14.00">kafka_raw</text>
</g>
<!-- kafka -->
<g id="node3" class="node">
<title>kafka</title>
<polygon fill="none" stroke="black" points="284.94,-707 234.33,-689 284.94,-671 335.55,-689 284.94,-707"/>
<text text-anchor="middle" x="284.94" y="-685.3" font-family="Times,serif" font-size="14.00">kafka</text>
</g>
<!-- kafka_raw&#45;&gt;kafka -->
<g id="edge4" class="edge">
<title>kafka_raw&#45;&gt;kafka</title>
<path fill="none" stroke="black" d="M284.94,-743.81C284.94,-735.79 284.94,-726.05 284.94,-717.07"/>
<polygon fill="black" stroke="black" points="288.44,-717.03 284.94,-707.03 281.44,-717.03 288.44,-717.03"/>
</g>
<!-- app_k8s_log_streams -->
<g id="node2" class="node">
<title>app_k8s_log_streams</title>
<polygon fill="none" stroke="black" points="284.94,-634 131.44,-616 284.94,-598 438.44,-616 284.94,-634"/>
<text text-anchor="middle" x="284.94" y="-612.3" font-family="Times,serif" font-size="14.00">app_k8s_log_streams</text>
</g>
<!-- http_accesslog&#45;k8s_prepared -->
<g id="node5" class="node">
<title>http_accesslog&#45;k8s_prepared</title>
<polygon fill="none" stroke="black" points="284.94,-547 79.99,-529 284.94,-511 489.88,-529 284.94,-547"/>
<text text-anchor="middle" x="284.94" y="-525.3" font-family="Times,serif" font-size="14.00">http_accesslog&#45;k8s_prepared</text>
</g>
<!-- app_k8s_log_streams&#45;&gt;http_accesslog&#45;k8s_prepared -->
<g id="edge3" class="edge">
<title>app_k8s_log_streams&#45;&gt;http_accesslog&#45;k8s_prepared</title>
<path fill="none" stroke="black" d="M284.94,-597.8C284.94,-586.16 284.94,-570.55 284.94,-557.24"/>
<polygon fill="black" stroke="black" points="288.44,-557.18 284.94,-547.18 281.44,-557.18 288.44,-557.18"/>
<text text-anchor="middle" x="370.44" y="-568.8" font-family="Times,serif" font-size="14.00">http_accesslog&#45;k8s_logs</text>
</g>
<!-- kafka&#45;&gt;app_k8s_log_streams -->
<g id="edge1" class="edge">
<title>kafka&#45;&gt;app_k8s_log_streams</title>
<path fill="none" stroke="black" d="M284.94,-670.81C284.94,-662.79 284.94,-653.05 284.94,-644.07"/>
<polygon fill="black" stroke="black" points="288.44,-644.03 284.94,-634.03 281.44,-644.03 288.44,-644.03"/>
</g>
<!-- http_accesslog&#45;k8s -->
<g id="node4" class="node">
<title>http_accesslog&#45;k8s</title>
<polygon fill="none" stroke="black" points="284.94,-474 146.35,-456 284.94,-438 423.52,-456 284.94,-474"/>
<text text-anchor="middle" x="284.94" y="-452.3" font-family="Times,serif" font-size="14.00">http_accesslog&#45;k8s</text>
</g>
<!-- metrics&#45;http&#45;accesslog&#45;k8s_exclude_filter -->
<g id="node9" class="node">
<title>metrics&#45;http&#45;accesslog&#45;k8s_exclude_filter</title>
<polygon fill="none" stroke="black" points="284.94,-401 0.06,-383 284.94,-365 569.82,-383 284.94,-401"/>
<text text-anchor="middle" x="284.94" y="-379.3" font-family="Times,serif" font-size="14.00">metrics&#45;http&#45;accesslog&#45;k8s_exclude_filter</text>
</g>
<!-- http_accesslog&#45;k8s&#45;&gt;metrics&#45;http&#45;accesslog&#45;k8s_exclude_filter -->
<g id="edge7" class="edge">
<title>http_accesslog&#45;k8s&#45;&gt;metrics&#45;http&#45;accesslog&#45;k8s_exclude_filter</title>
<path fill="none" stroke="black" d="M284.94,-437.81C284.94,-429.79 284.94,-420.05 284.94,-411.07"/>
<polygon fill="black" stroke="black" points="288.44,-411.03 284.94,-401.03 281.44,-411.03 288.44,-411.03"/>
</g>
<!-- http_accesslog&#45;k8s_prepared&#45;&gt;http_accesslog&#45;k8s -->
<g id="edge2" class="edge">
<title>http_accesslog&#45;k8s_prepared&#45;&gt;http_accesslog&#45;k8s</title>
<path fill="none" stroke="black" d="M284.94,-510.81C284.94,-502.79 284.94,-493.05 284.94,-484.07"/>
<polygon fill="black" stroke="black" points="288.44,-484.03 284.94,-474.03 281.44,-484.03 288.44,-484.03"/>
</g>
<!-- metrics&#45;cardinality&#45;limiter -->
<g id="node6" class="node">
<title>metrics&#45;cardinality&#45;limiter</title>
<polygon fill="none" stroke="black" points="284.94,-109 97.42,-91 284.94,-73 472.45,-91 284.94,-109"/>
<text text-anchor="middle" x="284.94" y="-87.3" font-family="Times,serif" font-size="14.00">metrics&#45;cardinality&#45;limiter</text>
</g>
<!-- access_log_metrics -->
<g id="node11" class="node">
<title>access_log_metrics</title>
<polygon fill="none" stroke="black" points="203.22,0 366.66,0 424.86,-36 145.01,-36 203.22,0"/>
<text text-anchor="middle" x="284.94" y="-14.3" font-family="Times,serif" font-size="14.00">access_log_metrics</text>
</g>
<!-- metrics&#45;cardinality&#45;limiter&#45;&gt;access_log_metrics -->
<g id="edge10" class="edge">
<title>metrics&#45;cardinality&#45;limiter&#45;&gt;access_log_metrics</title>
<path fill="none" stroke="black" d="M284.94,-72.81C284.94,-64.79 284.94,-55.05 284.94,-46.07"/>
<polygon fill="black" stroke="black" points="288.44,-46.03 284.94,-36.03 281.44,-46.03 288.44,-46.03"/>
</g>
<!-- metrics&#45;http&#45;accesslog&#45;k8s -->
<g id="node7" class="node">
<title>metrics&#45;http&#45;accesslog&#45;k8s</title>
<polygon fill="none" stroke="black" points="284.94,-182 94.91,-164 284.94,-146 474.97,-164 284.94,-182"/>
<text text-anchor="middle" x="284.94" y="-160.3" font-family="Times,serif" font-size="14.00">metrics&#45;http&#45;accesslog&#45;k8s</text>
</g>
<!-- metrics&#45;http&#45;accesslog&#45;k8s&#45;&gt;metrics&#45;cardinality&#45;limiter -->
<g id="edge5" class="edge">
<title>metrics&#45;http&#45;accesslog&#45;k8s&#45;&gt;metrics&#45;cardinality&#45;limiter</title>
<path fill="none" stroke="black" d="M284.94,-145.81C284.94,-137.79 284.94,-128.05 284.94,-119.07"/>
<polygon fill="black" stroke="black" points="288.44,-119.03 284.94,-109.03 281.44,-119.03 288.44,-119.03"/>
</g>
<!-- metrics&#45;http&#45;accesslog&#45;k8s_prepared -->
<g id="node8" class="node">
<title>metrics&#45;http&#45;accesslog&#45;k8s_prepared</title>
<polygon fill="none" stroke="black" points="284.94,-255 28.55,-237 284.94,-219 541.33,-237 284.94,-255"/>
<text text-anchor="middle" x="284.94" y="-233.3" font-family="Times,serif" font-size="14.00">metrics&#45;http&#45;accesslog&#45;k8s_prepared</text>
</g>
<!-- metrics&#45;http&#45;accesslog&#45;k8s_prepared&#45;&gt;metrics&#45;http&#45;accesslog&#45;k8s -->
<g id="edge6" class="edge">
<title>metrics&#45;http&#45;accesslog&#45;k8s_prepared&#45;&gt;metrics&#45;http&#45;accesslog&#45;k8s</title>
<path fill="none" stroke="black" d="M284.94,-218.81C284.94,-210.79 284.94,-201.05 284.94,-192.07"/>
<polygon fill="black" stroke="black" points="288.44,-192.03 284.94,-182.03 281.44,-192.03 288.44,-192.03"/>
</g>
<!-- metrics&#45;http&#45;accesslog&#45;k8s_filter -->
<g id="node10" class="node">
<title>metrics&#45;http&#45;accesslog&#45;k8s_filter</title>
<polygon fill="none" stroke="black" points="284.94,-328 57.04,-310 284.94,-292 512.84,-310 284.94,-328"/>
<text text-anchor="middle" x="284.94" y="-306.3" font-family="Times,serif" font-size="14.00">metrics&#45;http&#45;accesslog&#45;k8s_filter</text>
</g>
<!-- metrics&#45;http&#45;accesslog&#45;k8s_exclude_filter&#45;&gt;metrics&#45;http&#45;accesslog&#45;k8s_filter -->
<g id="edge8" class="edge">
<title>metrics&#45;http&#45;accesslog&#45;k8s_exclude_filter&#45;&gt;metrics&#45;http&#45;accesslog&#45;k8s_filter</title>
<path fill="none" stroke="black" d="M284.94,-364.81C284.94,-356.79 284.94,-347.05 284.94,-338.07"/>
<polygon fill="black" stroke="black" points="288.44,-338.03 284.94,-328.03 281.44,-338.03 288.44,-338.03"/>
</g>
<!-- metrics&#45;http&#45;accesslog&#45;k8s_filter&#45;&gt;metrics&#45;http&#45;accesslog&#45;k8s_prepared -->
<g id="edge9" class="edge">
<title>metrics&#45;http&#45;accesslog&#45;k8s_filter&#45;&gt;metrics&#45;http&#45;accesslog&#45;k8s_prepared</title>
<path fill="none" stroke="black" d="M284.94,-291.81C284.94,-283.79 284.94,-274.05 284.94,-265.07"/>
<polygon fill="black" stroke="black" points="288.44,-265.03 284.94,-255.03 281.44,-265.03 288.44,-265.03"/>
</g>
</g>
</svg>
