<?xml version="1.0" encoding="UTF-8" standalone="no"?>
<!DOCTYPE svg PUBLIC "-//W3C//DTD SVG 1.1//EN"
 "http://www.w3.org/Graphics/SVG/1.1/DTD/svg11.dtd">
<!-- Generated by graphviz version 2.43.0 (0)
 -->
<!-- Title: %3 Pages: 1 -->
<svg width="4015pt" height="861pt"
 viewBox="0.00 0.00 4015.09 861.00" xmlns="http://www.w3.org/2000/svg" xmlns:xlink="http://www.w3.org/1999/xlink">
<g id="graph0" class="graph" transform="scale(1 1) rotate(0) translate(4 857)">
<title>%3</title>
<polygon fill="white" stroke="transparent" points="-4,4 -4,-857 4011.09,-857 4011.09,4 -4,4"/>
<!-- kafka_raw -->
<g id="node1" class="node">
<title>kafka_raw</title>
<polygon fill="none" stroke="black" points="1751.52,-853 1656.2,-853 1622.25,-817 1785.47,-817 1751.52,-853"/>
<text text-anchor="middle" x="1703.86" y="-831.3" font-family="Times,serif" font-size="14.00">kafka_raw</text>
</g>
<!-- kafka -->
<g id="node3" class="node">
<title>kafka</title>
<polygon fill="none" stroke="black" points="1703.86,-780 1653.25,-762 1703.86,-744 1754.47,-762 1703.86,-780"/>
<text text-anchor="middle" x="1703.86" y="-758.3" font-family="Times,serif" font-size="14.00">kafka</text>
</g>
<!-- kafka_raw&#45;&gt;kafka -->
<g id="edge4" class="edge">
<title>kafka_raw&#45;&gt;kafka</title>
<path fill="none" stroke="black" d="M1703.86,-816.81C1703.86,-808.79 1703.86,-799.05 1703.86,-790.07"/>
<polygon fill="black" stroke="black" points="1707.36,-790.03 1703.86,-780.03 1700.36,-790.03 1707.36,-790.03"/>
</g>
<!-- app_k8s_log_streams -->
<g id="node2" class="node">
<title>app_k8s_log_streams</title>
<polygon fill="none" stroke="black" points="1703.86,-707 1550.36,-689 1703.86,-671 1857.36,-689 1703.86,-707"/>
<text text-anchor="middle" x="1703.86" y="-685.3" font-family="Times,serif" font-size="14.00">app_k8s_log_streams</text>
</g>
<!-- http_accesslog&#45;k8s_prepared -->
<g id="node5" class="node">
<title>http_accesslog&#45;k8s_prepared</title>
<polygon fill="none" stroke="black" points="1703.86,-620 1498.92,-602 1703.86,-584 1908.8,-602 1703.86,-620"/>
<text text-anchor="middle" x="1703.86" y="-598.3" font-family="Times,serif" font-size="14.00">http_accesslog&#45;k8s_prepared</text>
</g>
<!-- app_k8s_log_streams&#45;&gt;http_accesslog&#45;k8s_prepared -->
<g id="edge3" class="edge">
<title>app_k8s_log_streams&#45;&gt;http_accesslog&#45;k8s_prepared</title>
<path fill="none" stroke="black" d="M1703.86,-670.8C1703.86,-659.16 1703.86,-643.55 1703.86,-630.24"/>
<polygon fill="black" stroke="black" points="1707.36,-630.18 1703.86,-620.18 1700.36,-630.18 1707.36,-630.18"/>
<text text-anchor="middle" x="1789.36" y="-641.8" font-family="Times,serif" font-size="14.00">http_accesslog&#45;k8s_logs</text>
</g>
<!-- kafka&#45;&gt;app_k8s_log_streams -->
<g id="edge1" class="edge">
<title>kafka&#45;&gt;app_k8s_log_streams</title>
<path fill="none" stroke="black" d="M1703.86,-743.81C1703.86,-735.79 1703.86,-726.05 1703.86,-717.07"/>
<polygon fill="black" stroke="black" points="1707.36,-717.03 1703.86,-707.03 1700.36,-717.03 1707.36,-717.03"/>
</g>
<!-- http_accesslog&#45;k8s -->
<g id="node4" class="node">
<title>http_accesslog&#45;k8s</title>
<polygon fill="none" stroke="black" points="1703.86,-547 1565.27,-529 1703.86,-511 1842.45,-529 1703.86,-547"/>
<text text-anchor="middle" x="1703.86" y="-525.3" font-family="Times,serif" font-size="14.00">http_accesslog&#45;k8s</text>
</g>
<!-- metrics&#45;http&#45;accesslog&#45;k8s_exclude_filter -->
<g id="node13" class="node">
<title>metrics&#45;http&#45;accesslog&#45;k8s_exclude_filter</title>
<polygon fill="none" stroke="black" points="1703.86,-474 1418.98,-456 1703.86,-438 1988.74,-456 1703.86,-474"/>
<text text-anchor="middle" x="1703.86" y="-452.3" font-family="Times,serif" font-size="14.00">metrics&#45;http&#45;accesslog&#45;k8s_exclude_filter</text>
</g>
<!-- http_accesslog&#45;k8s&#45;&gt;metrics&#45;http&#45;accesslog&#45;k8s_exclude_filter -->
<g id="edge18" class="edge">
<title>http_accesslog&#45;k8s&#45;&gt;metrics&#45;http&#45;accesslog&#45;k8s_exclude_filter</title>
<path fill="none" stroke="black" d="M1703.86,-510.81C1703.86,-502.79 1703.86,-493.05 1703.86,-484.07"/>
<polygon fill="black" stroke="black" points="1707.36,-484.03 1703.86,-474.03 1700.36,-484.03 1707.36,-484.03"/>
</g>
<!-- http_accesslog&#45;k8s_prepared&#45;&gt;http_accesslog&#45;k8s -->
<g id="edge2" class="edge">
<title>http_accesslog&#45;k8s_prepared&#45;&gt;http_accesslog&#45;k8s</title>
<path fill="none" stroke="black" d="M1703.86,-583.81C1703.86,-575.79 1703.86,-566.05 1703.86,-557.07"/>
<polygon fill="black" stroke="black" points="1707.36,-557.03 1703.86,-547.03 1700.36,-557.03 1707.36,-557.03"/>
</g>
<!-- metrics&#45;cardinality&#45;limiter -->
<g id="node6" class="node">
<title>metrics&#45;cardinality&#45;limiter</title>
<polygon fill="none" stroke="black" points="1970.86,-109 1783.34,-91 1970.86,-73 2158.38,-91 1970.86,-109"/>
<text text-anchor="middle" x="1970.86" y="-87.3" font-family="Times,serif" font-size="14.00">metrics&#45;cardinality&#45;limiter</text>
</g>
<!-- access_log_metrics -->
<g id="node21" class="node">
<title>access_log_metrics</title>
<polygon fill="none" stroke="black" points="1889.14,0 2052.58,0 2110.78,-36 1830.94,-36 1889.14,0"/>
<text text-anchor="middle" x="1970.86" y="-14.3" font-family="Times,serif" font-size="14.00">access_log_metrics</text>
</g>
<!-- metrics&#45;cardinality&#45;limiter&#45;&gt;access_log_metrics -->
<g id="edge23" class="edge">
<title>metrics&#45;cardinality&#45;limiter&#45;&gt;access_log_metrics</title>
<path fill="none" stroke="black" d="M1970.86,-72.81C1970.86,-64.79 1970.86,-55.05 1970.86,-46.07"/>
<polygon fill="black" stroke="black" points="1974.36,-46.03 1970.86,-36.03 1967.36,-46.03 1974.36,-46.03"/>
</g>
<!-- metrics&#45;http&#45;accesslog&#45;k8s -->
<g id="node7" class="node">
<title>metrics&#45;http&#45;accesslog&#45;k8s</title>
<polygon fill="none" stroke="black" points="1970.86,-182 1780.83,-164 1970.86,-146 2160.89,-164 1970.86,-182"/>
<text text-anchor="middle" x="1970.86" y="-160.3" font-family="Times,serif" font-size="14.00">metrics&#45;http&#45;accesslog&#45;k8s</text>
</g>
<!-- metrics&#45;http&#45;accesslog&#45;k8s&#45;&gt;metrics&#45;cardinality&#45;limiter -->
<g id="edge5" class="edge">
<title>metrics&#45;http&#45;accesslog&#45;k8s&#45;&gt;metrics&#45;cardinality&#45;limiter</title>
<path fill="none" stroke="black" d="M1970.86,-145.81C1970.86,-137.79 1970.86,-128.05 1970.86,-119.07"/>
<polygon fill="black" stroke="black" points="1974.36,-119.03 1970.86,-109.03 1967.36,-119.03 1974.36,-119.03"/>
</g>
<!-- metrics&#45;http&#45;accesslog&#45;k8s&#45;metric&#45;vi_http_requests_total -->
<g id="node8" class="node">
<title>metrics&#45;http&#45;accesslog&#45;k8s&#45;metric&#45;vi_http_requests_total</title>
<polygon fill="none" stroke="black" points="1500.86,-255 1113.93,-237 1500.86,-219 1887.79,-237 1500.86,-255"/>
<text text-anchor="middle" x="1500.86" y="-233.3" font-family="Times,serif" font-size="14.00">metrics&#45;http&#45;accesslog&#45;k8s&#45;metric&#45;vi_http_requests_total</text>
</g>
<!-- metrics&#45;http&#45;accesslog&#45;k8s&#45;metric&#45;vi_http_requests_total&#45;&gt;metrics&#45;http&#45;accesslog&#45;k8s -->
<g id="edge6" class="edge">
<title>metrics&#45;http&#45;accesslog&#45;k8s&#45;metric&#45;vi_http_requests_total&#45;&gt;metrics&#45;http&#45;accesslog&#45;k8s</title>
<path fill="none" stroke="black" d="M1587.07,-222.98C1674.03,-209.84 1807.18,-189.73 1891.59,-176.98"/>
<polygon fill="black" stroke="black" points="1892.27,-180.41 1901.63,-175.46 1891.22,-173.49 1892.27,-180.41"/>
</g>
<!-- metrics&#45;http&#45;accesslog&#45;k8s&#45;metric&#45;vi_http_request_duration_seconds -->
<g id="node9" class="node">
<title>metrics&#45;http&#45;accesslog&#45;k8s&#45;metric&#45;vi_http_request_duration_seconds</title>
<polygon fill="none" stroke="black" points="604.86,-255 140.51,-237 604.86,-219 1069.21,-237 604.86,-255"/>
<text text-anchor="middle" x="604.86" y="-233.3" font-family="Times,serif" font-size="14.00">metrics&#45;http&#45;accesslog&#45;k8s&#45;metric&#45;vi_http_request_duration_seconds</text>
</g>
<!-- metrics&#45;http&#45;accesslog&#45;k8s&#45;metric&#45;vi_http_request_duration_seconds&#45;&gt;metrics&#45;http&#45;accesslog&#45;k8s -->
<g id="edge7" class="edge">
<title>metrics&#45;http&#45;accesslog&#45;k8s&#45;metric&#45;vi_http_request_duration_seconds&#45;&gt;metrics&#45;http&#45;accesslog&#45;k8s</title>
<path fill="none" stroke="black" d="M792.29,-226.26C1074.96,-211.57 1602.93,-184.12 1844.43,-171.57"/>
<polygon fill="black" stroke="black" points="1844.85,-175.05 1854.66,-171.04 1844.49,-168.06 1844.85,-175.05"/>
</g>
<!-- metrics&#45;http&#45;accesslog&#45;k8s&#45;metric&#45;vi_kubedns_http_requests_total -->
<g id="node10" class="node">
<title>metrics&#45;http&#45;accesslog&#45;k8s&#45;metric&#45;vi_kubedns_http_requests_total</title>
<polygon fill="none" stroke="black" points="3465.86,-255 3017.26,-237 3465.86,-219 3914.46,-237 3465.86,-255"/>
<text text-anchor="middle" x="3465.86" y="-233.3" font-family="Times,serif" font-size="14.00">metrics&#45;http&#45;accesslog&#45;k8s&#45;metric&#45;vi_kubedns_http_requests_total</text>
</g>
<!-- metrics&#45;http&#45;accesslog&#45;k8s&#45;metric&#45;vi_kubedns_http_requests_total&#45;&gt;metrics&#45;http&#45;accesslog&#45;k8s -->
<g id="edge8" class="edge">
<title>metrics&#45;http&#45;accesslog&#45;k8s&#45;metric&#45;vi_kubedns_http_requests_total&#45;&gt;metrics&#45;http&#45;accesslog&#45;k8s</title>
<path fill="none" stroke="black" d="M3271.56,-226.77C2961.91,-212.07 2364.59,-183.7 2101.13,-171.19"/>
<polygon fill="black" stroke="black" points="2100.9,-167.67 2090.75,-170.69 2100.57,-174.66 2100.9,-167.67"/>
</g>
<!-- metrics&#45;http&#45;accesslog&#45;k8s&#45;metric&#45;vi_kubedns_http_request_duration_seconds -->
<g id="node11" class="node">
<title>metrics&#45;http&#45;accesslog&#45;k8s&#45;metric&#45;vi_kubedns_http_request_duration_seconds</title>
<polygon fill="none" stroke="black" points="2440.86,-255 1915.34,-237 2440.86,-219 2966.38,-237 2440.86,-255"/>
<text text-anchor="middle" x="2440.86" y="-233.3" font-family="Times,serif" font-size="14.00">metrics&#45;http&#45;accesslog&#45;k8s&#45;metric&#45;vi_kubedns_http_request_duration_seconds</text>
</g>
<!-- metrics&#45;http&#45;accesslog&#45;k8s&#45;metric&#45;vi_kubedns_http_request_duration_seconds&#45;&gt;metrics&#45;http&#45;accesslog&#45;k8s -->
<g id="edge9" class="edge">
<title>metrics&#45;http&#45;accesslog&#45;k8s&#45;metric&#45;vi_kubedns_http_request_duration_seconds&#45;&gt;metrics&#45;http&#45;accesslog&#45;k8s</title>
<path fill="none" stroke="black" d="M2349.12,-222.14C2262.19,-209.01 2132.95,-189.49 2050.31,-177"/>
<polygon fill="black" stroke="black" points="2050.63,-173.51 2040.22,-175.48 2049.58,-180.43 2050.63,-173.51"/>
</g>
<!-- metrics&#45;http&#45;accesslog&#45;k8s&#45;filter&#45;metric_vi_http_request_duration_seconds -->
<g id="node12" class="node">
<title>metrics&#45;http&#45;accesslog&#45;k8s&#45;filter&#45;metric_vi_http_request_duration_seconds</title>
<polygon fill="none" stroke="black" points="501.86,-401 0.14,-383 501.86,-365 1003.58,-383 501.86,-401"/>
<text text-anchor="middle" x="501.86" y="-379.3" font-family="Times,serif" font-size="14.00">metrics&#45;http&#45;accesslog&#45;k8s&#45;filter&#45;metric_vi_http_request_duration_seconds</text>
</g>
<!-- metrics&#45;http&#45;accesslog&#45;k8s_reducer_vi_http_request_duration_seconds -->
<g id="node17" class="node">
<title>metrics&#45;http&#45;accesslog&#45;k8s_reducer_vi_http_request_duration_seconds</title>
<polygon fill="none" stroke="black" points="559.86,-328 83.61,-310 559.86,-292 1036.11,-310 559.86,-328"/>
<text text-anchor="middle" x="559.86" y="-306.3" font-family="Times,serif" font-size="14.00">metrics&#45;http&#45;accesslog&#45;k8s_reducer_vi_http_request_duration_seconds</text>
</g>
<!-- metrics&#45;http&#45;accesslog&#45;k8s&#45;filter&#45;metric_vi_http_request_duration_seconds&#45;&gt;metrics&#45;http&#45;accesslog&#45;k8s_reducer_vi_http_request_duration_seconds -->
<g id="edge19" class="edge">
<title>metrics&#45;http&#45;accesslog&#45;k8s&#45;filter&#45;metric_vi_http_request_duration_seconds&#45;&gt;metrics&#45;http&#45;accesslog&#45;k8s_reducer_vi_http_request_duration_seconds</title>
<path fill="none" stroke="black" d="M515.61,-365.17C522.83,-356.33 531.82,-345.33 539.8,-335.55"/>
<polygon fill="black" stroke="black" points="542.6,-337.66 546.21,-327.71 537.18,-333.24 542.6,-337.66"/>
</g>
<!-- metrics&#45;http&#45;accesslog&#45;k8s_exclude_filter&#45;&gt;metrics&#45;http&#45;accesslog&#45;k8s&#45;filter&#45;metric_vi_http_request_duration_seconds -->
<g id="edge10" class="edge">
<title>metrics&#45;http&#45;accesslog&#45;k8s_exclude_filter&#45;&gt;metrics&#45;http&#45;accesslog&#45;k8s&#45;filter&#45;metric_vi_http_request_duration_seconds</title>
<path fill="none" stroke="black" d="M1564.8,-446.79C1349.18,-434.05 933.8,-409.51 691.06,-395.18"/>
<polygon fill="black" stroke="black" points="691.26,-391.68 681.07,-394.59 690.85,-398.67 691.26,-391.68"/>
</g>
<!-- metrics&#45;http&#45;accesslog&#45;k8s&#45;filter&#45;metric_vi_http_requests_total -->
<g id="node14" class="node">
<title>metrics&#45;http&#45;accesslog&#45;k8s&#45;filter&#45;metric_vi_http_requests_total</title>
<polygon fill="none" stroke="black" points="1446.86,-401 1022.06,-383 1446.86,-365 1871.66,-383 1446.86,-401"/>
<text text-anchor="middle" x="1446.86" y="-379.3" font-family="Times,serif" font-size="14.00">metrics&#45;http&#45;accesslog&#45;k8s&#45;filter&#45;metric_vi_http_requests_total</text>
</g>
<!-- metrics&#45;http&#45;accesslog&#45;k8s_exclude_filter&#45;&gt;metrics&#45;http&#45;accesslog&#45;k8s&#45;filter&#45;metric_vi_http_requests_total -->
<g id="edge11" class="edge">
<title>metrics&#45;http&#45;accesslog&#45;k8s_exclude_filter&#45;&gt;metrics&#45;http&#45;accesslog&#45;k8s&#45;filter&#45;metric_vi_http_requests_total</title>
<path fill="none" stroke="black" d="M1653.7,-441.14C1612.68,-429.81 1554.45,-413.72 1510.22,-401.5"/>
<polygon fill="black" stroke="black" points="1511.01,-398.09 1500.44,-398.8 1509.15,-404.84 1511.01,-398.09"/>
</g>
<!-- metrics&#45;http&#45;accesslog&#45;k8s&#45;filter&#45;metric_vi_kubedns_http_request_duration_seconds -->
<g id="node15" class="node">
<title>metrics&#45;http&#45;accesslog&#45;k8s&#45;filter&#45;metric_vi_kubedns_http_request_duration_seconds</title>
<polygon fill="none" stroke="black" points="2452.86,-401 1889.47,-383 2452.86,-365 3016.25,-383 2452.86,-401"/>
<text text-anchor="middle" x="2452.86" y="-379.3" font-family="Times,serif" font-size="14.00">metrics&#45;http&#45;accesslog&#45;k8s&#45;filter&#45;metric_vi_kubedns_http_request_duration_seconds</text>
</g>
<!-- metrics&#45;http&#45;accesslog&#45;k8s_exclude_filter&#45;&gt;metrics&#45;http&#45;accesslog&#45;k8s&#45;filter&#45;metric_vi_kubedns_http_request_duration_seconds -->
<g id="edge12" class="edge">
<title>metrics&#45;http&#45;accesslog&#45;k8s_exclude_filter&#45;&gt;metrics&#45;http&#45;accesslog&#45;k8s&#45;filter&#45;metric_vi_kubedns_http_request_duration_seconds</title>
<path fill="none" stroke="black" d="M1811.57,-444.79C1942.23,-432.4 2162.99,-411.48 2308.34,-397.7"/>
<polygon fill="black" stroke="black" points="2309.05,-401.15 2318.67,-396.72 2308.39,-394.18 2309.05,-401.15"/>
</g>
<!-- metrics&#45;http&#45;accesslog&#45;k8s&#45;filter&#45;metric_vi_kubedns_http_requests_total -->
<g id="node16" class="node">
<title>metrics&#45;http&#45;accesslog&#45;k8s&#45;filter&#45;metric_vi_kubedns_http_requests_total</title>
<polygon fill="none" stroke="black" points="3520.86,-401 3034.39,-383 3520.86,-365 4007.33,-383 3520.86,-401"/>
<text text-anchor="middle" x="3520.86" y="-379.3" font-family="Times,serif" font-size="14.00">metrics&#45;http&#45;accesslog&#45;k8s&#45;filter&#45;metric_vi_kubedns_http_requests_total</text>
</g>
<!-- metrics&#45;http&#45;accesslog&#45;k8s_exclude_filter&#45;&gt;metrics&#45;http&#45;accesslog&#45;k8s&#45;filter&#45;metric_vi_kubedns_http_requests_total -->
<g id="edge13" class="edge">
<title>metrics&#45;http&#45;accesslog&#45;k8s_exclude_filter&#45;&gt;metrics&#45;http&#45;accesslog&#45;k8s&#45;filter&#45;metric_vi_kubedns_http_requests_total</title>
<path fill="none" stroke="black" d="M1870.33,-448.5C2195.25,-435.8 2914.63,-407.69 3287.14,-393.13"/>
<polygon fill="black" stroke="black" points="3287.38,-396.63 3297.24,-392.74 3287.11,-389.63 3287.38,-396.63"/>
</g>
<!-- metrics&#45;http&#45;accesslog&#45;k8s_reducer_vi_http_requests_total -->
<g id="node18" class="node">
<title>metrics&#45;http&#45;accesslog&#45;k8s_reducer_vi_http_requests_total</title>
<polygon fill="none" stroke="black" points="1477.86,-328 1079.03,-310 1477.86,-292 1876.69,-310 1477.86,-328"/>
<text text-anchor="middle" x="1477.86" y="-306.3" font-family="Times,serif" font-size="14.00">metrics&#45;http&#45;accesslog&#45;k8s_reducer_vi_http_requests_total</text>
</g>
<!-- metrics&#45;http&#45;accesslog&#45;k8s&#45;filter&#45;metric_vi_http_requests_total&#45;&gt;metrics&#45;http&#45;accesslog&#45;k8s_reducer_vi_http_requests_total -->
<g id="edge20" class="edge">
<title>metrics&#45;http&#45;accesslog&#45;k8s&#45;filter&#45;metric_vi_http_requests_total&#45;&gt;metrics&#45;http&#45;accesslog&#45;k8s_reducer_vi_http_requests_total</title>
<path fill="none" stroke="black" d="M1454.21,-365.17C1457.87,-356.77 1462.39,-346.42 1466.5,-337.03"/>
<polygon fill="black" stroke="black" points="1469.77,-338.27 1470.57,-327.71 1463.36,-335.47 1469.77,-338.27"/>
</g>
<!-- metrics&#45;http&#45;accesslog&#45;k8s_reducer_vi_kubedns_http_request_duration_seconds -->
<g id="node19" class="node">
<title>metrics&#45;http&#45;accesslog&#45;k8s_reducer_vi_kubedns_http_request_duration_seconds</title>
<polygon fill="none" stroke="black" points="2445.86,-328 1907.95,-310 2445.86,-292 2983.77,-310 2445.86,-328"/>
<text text-anchor="middle" x="2445.86" y="-306.3" font-family="Times,serif" font-size="14.00">metrics&#45;http&#45;accesslog&#45;k8s_reducer_vi_kubedns_http_request_duration_seconds</text>
</g>
<!-- metrics&#45;http&#45;accesslog&#45;k8s&#45;filter&#45;metric_vi_kubedns_http_request_duration_seconds&#45;&gt;metrics&#45;http&#45;accesslog&#45;k8s_reducer_vi_kubedns_http_request_duration_seconds -->
<g id="edge21" class="edge">
<title>metrics&#45;http&#45;accesslog&#45;k8s&#45;filter&#45;metric_vi_kubedns_http_request_duration_seconds&#45;&gt;metrics&#45;http&#45;accesslog&#45;k8s_reducer_vi_kubedns_http_request_duration_seconds</title>
<path fill="none" stroke="black" d="M2451.17,-364.81C2450.37,-356.79 2449.41,-347.05 2448.53,-338.07"/>
<polygon fill="black" stroke="black" points="2452,-337.64 2447.54,-328.03 2445.04,-338.32 2452,-337.64"/>
</g>
<!-- metrics&#45;http&#45;accesslog&#45;k8s_reducer_vi_kubedns_http_requests_total -->
<g id="node20" class="node">
<title>metrics&#45;http&#45;accesslog&#45;k8s_reducer_vi_kubedns_http_requests_total</title>
<polygon fill="none" stroke="black" points="3493.86,-328 3033.36,-310 3493.86,-292 3954.36,-310 3493.86,-328"/>
<text text-anchor="middle" x="3493.86" y="-306.3" font-family="Times,serif" font-size="14.00">metrics&#45;http&#45;accesslog&#45;k8s_reducer_vi_kubedns_http_requests_total</text>
</g>
<!-- metrics&#45;http&#45;accesslog&#45;k8s&#45;filter&#45;metric_vi_kubedns_http_requests_total&#45;&gt;metrics&#45;http&#45;accesslog&#45;k8s_reducer_vi_kubedns_http_requests_total -->
<g id="edge22" class="edge">
<title>metrics&#45;http&#45;accesslog&#45;k8s&#45;filter&#45;metric_vi_kubedns_http_requests_total&#45;&gt;metrics&#45;http&#45;accesslog&#45;k8s_reducer_vi_kubedns_http_requests_total</title>
<path fill="none" stroke="black" d="M3514.46,-365.17C3511.35,-356.98 3507.53,-346.94 3504.03,-337.73"/>
<polygon fill="black" stroke="black" points="3507.23,-336.3 3500.4,-328.2 3500.68,-338.79 3507.23,-336.3"/>
</g>
<!-- metrics&#45;http&#45;accesslog&#45;k8s_reducer_vi_http_request_duration_seconds&#45;&gt;metrics&#45;http&#45;accesslog&#45;k8s&#45;metric&#45;vi_http_request_duration_seconds -->
<g id="edge14" class="edge">
<title>metrics&#45;http&#45;accesslog&#45;k8s_reducer_vi_http_request_duration_seconds&#45;&gt;metrics&#45;http&#45;accesslog&#45;k8s&#45;metric&#45;vi_http_request_duration_seconds</title>
<path fill="none" stroke="black" d="M570.52,-292.17C575.96,-283.6 582.68,-272.99 588.74,-263.44"/>
<polygon fill="black" stroke="black" points="591.87,-265.03 594.27,-254.71 585.96,-261.28 591.87,-265.03"/>
</g>
<!-- metrics&#45;http&#45;accesslog&#45;k8s_reducer_vi_http_requests_total&#45;&gt;metrics&#45;http&#45;accesslog&#45;k8s&#45;metric&#45;vi_http_requests_total -->
<g id="edge15" class="edge">
<title>metrics&#45;http&#45;accesslog&#45;k8s_reducer_vi_http_requests_total&#45;&gt;metrics&#45;http&#45;accesslog&#45;k8s&#45;metric&#45;vi_http_requests_total</title>
<path fill="none" stroke="black" d="M1483.31,-292.17C1485.96,-283.98 1489.22,-273.94 1492.2,-264.73"/>
<polygon fill="black" stroke="black" points="1495.54,-265.79 1495.29,-255.2 1488.88,-263.63 1495.54,-265.79"/>
</g>
<!-- metrics&#45;http&#45;accesslog&#45;k8s_reducer_vi_kubedns_http_request_duration_seconds&#45;&gt;metrics&#45;http&#45;accesslog&#45;k8s&#45;metric&#45;vi_kubedns_http_request_duration_seconds -->
<g id="edge16" class="edge">
<title>metrics&#45;http&#45;accesslog&#45;k8s_reducer_vi_kubedns_http_request_duration_seconds&#45;&gt;metrics&#45;http&#45;accesslog&#45;k8s&#45;metric&#45;vi_kubedns_http_request_duration_seconds</title>
<path fill="none" stroke="black" d="M2444.65,-291.81C2444.08,-283.79 2443.4,-274.05 2442.77,-265.07"/>
<polygon fill="black" stroke="black" points="2446.25,-264.76 2442.06,-255.03 2439.27,-265.25 2446.25,-264.76"/>
</g>
<!-- metrics&#45;http&#45;accesslog&#45;k8s_reducer_vi_kubedns_http_requests_total&#45;&gt;metrics&#45;http&#45;accesslog&#45;k8s&#45;metric&#45;vi_kubedns_http_requests_total -->
<g id="edge17" class="edge">
<title>metrics&#45;http&#45;accesslog&#45;k8s_reducer_vi_kubedns_http_requests_total&#45;&gt;metrics&#45;http&#45;accesslog&#45;k8s&#45;metric&#45;vi_kubedns_http_requests_total</title>
<path fill="none" stroke="black" d="M3487.22,-292.17C3483.99,-283.98 3480.03,-273.94 3476.4,-264.73"/>
<polygon fill="black" stroke="black" points="3479.57,-263.22 3472.64,-255.2 3473.06,-265.79 3479.57,-263.22"/>
</g>
</g>
</svg>
